<svg id="Layer_1" data-name="Layer 1" xmlns="http://www.w3.org/2000/svg" viewBox="0 0 76 76"><defs><style>.cls-1{opacity:0.87;}.cls-2{fill:#000;}</style></defs><title>Logo Black</title><g class="cls-1"><path class="cls-2" d="M76,76H0V0H76ZM2,74H74V2H2Z"/><path class="cls-2" d="M27,27.83a13,13,0,0,1-.54,3.89,8.1,8.1,0,0,1-1.57,2.92,6.79,6.79,0,0,1-2.57,1.84,9.17,9.17,0,0,1-3.54.64,14.51,14.51,0,0,1-3.71-.5l.22-2.27a.86.86,0,0,1,.24-.53.84.84,0,0,1,.62-.21,3.24,3.24,0,0,1,.84.15,5.18,5.18,0,0,0,1.39.15,5.67,5.67,0,0,0,2-.34,3.63,3.63,0,0,0,1.5-1.07,4.9,4.9,0,0,0,.93-1.86,10.26,10.26,0,0,0,.31-2.72V11H27Z"/><path class="cls-2" d="M56,58.36V68.58H52.18V58.36L42.71,42.74h3.37a1.26,1.26,0,0,1,.81.24,1.86,1.86,0,0,1,.5.64L53,53.28q.34.67.62,1.26t.5,1.17q.2-.58.46-1.17t.6-1.26l5.6-9.67a2.3,2.3,0,0,1,.5-.6,1.16,1.16,0,0,1,.8-.28h3.38Z"/><rect class="cls-2" x="4.65" y="37" width="66.7" height="2" transform="translate(-15.74 38) rotate(-45)"/></g></svg>